<?xml version="1.0" encoding="utf-8" ?>
<svg xmlns="http://www.w3.org/2000/svg" xmlns:xlink="http://www.w3.org/1999/xlink" width="256" height="256">
	<defs>
		<linearGradient id="gradient_0" gradientUnits="userSpaceOnUse" x1="282.99881" y1="1352.4166" x2="1130.6144" y2="423.4552">
			<stop offset="0" stop-color="#35098A"/>
			<stop offset="1" stop-color="#6423B2"/>
		</linearGradient>
	</defs>
	<path fill="url(#gradient_0)" transform="scale(0.16 0.16)" d="M759.305 43.4205C765.916 42.3047 773.174 42.935 779.885 42.88L797.747 42.0536L821.222 42.9358C968.888 44.9278 1118.78 96.5141 1238.86 181.918C1402.18 298.081 1514.45 475.156 1548.03 673.047C1574.25 827.585 1551.91 992.34 1481.54 1132.94C1446.59 1202.78 1402.95 1266.53 1348.77 1322.88C1329.76 1342.64 1310.23 1361.87 1288.95 1379.28L1258.94 1403.24L1240.71 1416.65C1143.25 1487.95 1024.36 1533.75 905.078 1550.53L839.844 1556.94C831.123 1557.43 822.414 1556.65 813.699 1557.72C803.411 1558.98 792.687 1557.74 782.422 1557.22C775.679 1556.88 768.835 1557.49 762.109 1557.04L732.544 1554.67C585.728 1541.4 446.19 1485.91 330.209 1394.99C209.198 1300.12 119.183 1167.94 74.2159 1020.93C60.3874 975.724 51.4106 929.718 45.8714 882.812C43.5429 863.095 42.8784 843.604 42.0295 823.828C41.6038 813.91 40.7356 804.309 40.8441 794.327C40.8985 789.324 41.8359 784.46 41.9625 779.494C46.0758 618.087 102.463 459.709 202.691 332.788C295.174 215.676 419.931 127.126 561.927 80.4539C613.554 63.485 666.098 52.8368 719.993 46.4805L759.305 43.4205Z"/>
	<path fill="#082287" transform="scale(0.16 0.16)" d="M481.369 992.184L483.962 992.695L484.084 993.073L486.033 996.26C514.427 999.305 543.612 1004.61 572.177 1003.9L606.025 1002.81L611.25 1003.67L606.435 1006.5L606.466 1006.58C610.079 1008.13 611.41 1010.06 613.433 1013.34L613.47 1014.39L612.866 1015.76C605.795 1018.47 597.273 1017.69 589.844 1018.01C564.714 1019.11 540.205 1019.21 515.371 1014.19C505.112 1012.12 484.37 1008.88 478.329 999.856C478.189 998.072 477.676 995.587 478.406 993.928C478.837 992.948 480.442 992.602 481.369 992.184Z"/>
	<path fill="#FE193F" transform="scale(0.16 0.16)" d="M606.025 1002.81L611.25 1003.67L606.435 1006.5L606.466 1006.58L566.72 1007.8L568.11 1004.89L572.177 1003.9L606.025 1002.81Z"/>
	<path fill="#FE3E58" transform="scale(0.16 0.16)" d="M486.033 996.26C514.427 999.305 543.612 1004.61 572.177 1003.9L568.11 1004.89L566.72 1007.8C553.186 1007.99 539.843 1006.42 526.396 1005.08C514.184 1003.86 496.401 1003.77 486.033 996.26Z"/>
	<path fill="#F873E9" transform="scale(0.16 0.16)" d="M250.593 787.209C250.907 786.184 251.035 785.387 250.67 784.368C250.206 783.074 249.684 781.967 249.473 780.586C249.036 777.731 248.742 774.949 247.577 772.266C245.598 767.705 242.455 763.146 241.324 758.31C240.817 756.139 240.327 754.479 241.582 752.566C244.56 752.189 246.686 752.462 249.577 753.253C252.828 754.143 259.222 756.557 262.426 755.64L263.077 755.351L280.845 778.93L343.052 852.981L348.357 857.311C350.497 860.688 352.634 863.214 355.501 865.981L360.368 871.35L359.672 874.442C357.239 875.434 355.781 873.839 353.906 874.381C352.288 874.849 349.496 877.538 347.827 878.474C344.441 880.374 339.993 880.854 336.204 881.541C335.722 882.784 335.405 883.84 335.232 885.164C340.353 897.015 347.368 908.408 351.067 920.771L342.213 926.886C335.522 919.517 330.019 910.739 324.604 902.395L302.929 868.464C296.501 858.374 288.621 848.266 283.468 837.505L264.693 809.766C259.697 802.421 254.464 795.233 250.593 787.209Z"/>
	<path fill="#F665ED" transform="scale(0.16 0.16)" d="M355.501 865.981C354.716 866.098 351.746 866.828 351.172 866.626C348.004 865.51 346.507 860.625 343.508 858.648C339.446 855.971 336.074 852.919 332.523 849.609L333.203 848.836C335.524 849.703 337.119 850.398 338.731 852.356C339.818 853.677 339.701 853.781 341.406 854.417L343.052 852.981L348.357 857.311C350.497 860.688 352.634 863.214 355.501 865.981Z"/>
	<defs>
		<linearGradient id="gradient_1" gradientUnits="userSpaceOnUse" x1="286.17523" y1="796.08875" x2="235.23872" y2="784.53131">
			<stop offset="0" stop-color="#FCB2F6"/>
			<stop offset="1" stop-color="#FCCFF8"/>
		</linearGradient>
	</defs>
	<path fill="url(#gradient_1)" transform="scale(0.16 0.16)" d="M250.593 787.209C250.907 786.184 251.035 785.387 250.67 784.368C250.206 783.074 249.684 781.967 249.473 780.586C249.036 777.731 248.742 774.949 247.577 772.266C245.598 767.705 242.455 763.146 241.324 758.31C240.817 756.139 240.327 754.479 241.582 752.566C244.56 752.189 246.686 752.462 249.577 753.253C252.828 754.143 259.222 756.557 262.426 755.64L263.077 755.351L280.845 778.93L280.203 779.578C278.127 781.622 276.605 782.692 273.828 783.559C272.285 785.343 271.651 786.418 270.959 788.672C271.794 792.409 274.784 794.796 277.576 797.168L277.921 796.875L280.636 821.094C281.156 825.818 280.799 830.091 283.064 834.418C283.644 835.527 283.621 836.291 283.468 837.505L264.693 809.766C259.697 802.421 254.464 795.233 250.593 787.209Z"/>
	<defs>
		<linearGradient id="gradient_2" gradientUnits="userSpaceOnUse" x1="351.52771" y1="936.36517" x2="356.9971" y2="993.22406">
			<stop offset="0" stop-color="#FEECE3"/>
			<stop offset="1" stop-color="white"/>
		</linearGradient>
	</defs>
	<path fill="url(#gradient_2)" transform="scale(0.16 0.16)" d="M490.8 924.192C493.348 924.301 496.741 924.025 499.124 924.88L501.836 925.589C501.976 929.163 500.047 932.77 498.384 935.817L494.446 936.334C493.512 937.029 492.794 937.718 491.658 938.027C485.699 941.063 478.408 944.005 471.886 945.515L390.22 971.106C361.551 980.574 332.656 989.881 303.275 996.876C290.405 999.94 277.262 1003.26 263.995 1003.78C255.898 1004.1 248.059 1002.52 240.157 1000.96C234.088 999.764 227.671 998.592 222.084 995.824C218.075 993.837 215.248 990.869 212.223 987.677C214.748 985.817 218.177 984.672 221.094 983.516C229.703 980.104 238.776 977.854 247.675 975.325C251.172 974.331 255.924 972.308 259.485 972.13L314.793 955.672L355.891 943.997C399.985 932.434 445.115 924.257 490.8 924.192Z"/>
	<path fill="#FFDECE" transform="scale(0.16 0.16)" d="M409.978 944.922C412.382 944.636 413.234 944.263 415.439 945.372L416.008 948.828L417.112 949.64L408.177 952.573L402.539 953.611L403.523 952.734L403.558 951.951C404.137 949.035 407.666 946.508 409.978 944.922Z"/>
	<path fill="white" transform="scale(0.16 0.16)" d="M499.124 924.88L501.836 925.589C501.976 929.163 500.047 932.77 498.384 935.817L494.446 936.334C493.04 933.48 493.712 928.62 493.707 925.391L499.124 924.88Z"/>
	<path fill="#FFD49B" transform="scale(0.16 0.16)" d="M471.886 945.515C470.411 943.603 468.983 941.879 466.745 940.843C465.012 940.041 465.592 940.726 464.907 939.269C472.595 937.757 483.899 936.808 491.658 938.027C485.699 941.063 478.408 944.005 471.886 945.515Z"/>
	<path fill="white" transform="scale(0.16 0.16)" d="M259.485 972.13L314.793 955.672C314.313 958.904 314.295 962.949 311.391 964.983C309.292 966.453 308.27 966.176 305.859 966.165L305.004 965.574C302.815 964.091 301.515 963.058 298.828 963.128C297.187 964.815 297.149 966.533 296.849 968.75L295.508 969.401L296.68 966.211L297.07 963.477L297.461 962.695C294.101 962.984 290.812 964.366 287.562 965.265L269.48 970.448C267.954 970.927 261.611 973.293 260.515 972.895C260.113 972.749 259.828 972.385 259.485 972.13Z"/>
	<path fill="#082287" transform="scale(0.16 0.16)" d="M619.775 1029.73C648.492 1085.17 682.865 1136.47 727.065 1180.84C733.672 1187.47 741.027 1196.09 748.538 1201.49C750.711 1203.39 752.971 1205.81 755.429 1207.29L760.15 1211.15C776.46 1226.62 794.783 1241.15 813.824 1253.11C830.58 1263.63 848.523 1272.41 866.151 1281.36C944.761 1321.25 1026.76 1353.9 1111.79 1377.3C1135.83 1383.91 1161.43 1390.86 1186.15 1394.16L1189.74 1395.28L1203.18 1397.43L1214.63 1399.61L1258.94 1403.24L1240.71 1416.65C1236.64 1414.46 1229.6 1414.4 1225 1413.77L1172.39 1406.48L1131.7 1397.57C1082.71 1386.17 1033.96 1371.08 987.189 1352.54L938.281 1331.32C872.584 1302.8 806.377 1271.28 749.774 1226.78C695.904 1184.42 642.417 1128.33 623.288 1060.89C621.168 1053.42 618.716 1045.58 617.833 1037.86C617.396 1034.03 617.326 1032.8 619.775 1029.73Z"/>
	<path fill="white" transform="scale(0.16 0.16)" d="M759.305 43.4205L799.389 104.945L860.029 197.729L893.644 249.106L965.715 350.331L988.232 380.524C995.331 389.785 1002.82 398.977 1009.05 408.848C1014.24 417.061 1020.04 427.402 1018.55 437.5C1017.7 443.284 1013.47 448.129 1008.87 451.432C999.498 458.166 985.684 459.407 974.609 460.949C905.575 470.558 833.473 459.509 765.232 448.506L703.856 438.661L703.33 438.553C684.186 434.742 664.841 431.277 645.291 431.302C559.323 420.612 471.891 434.597 391.611 466.398C359.355 479.175 327.466 495.125 300.007 516.539C262.863 545.507 227.279 583.385 221.394 632.251C215.643 679.999 239.283 716.665 263.077 755.351L262.426 755.64C259.222 756.557 252.828 754.143 249.577 753.253C246.686 752.462 244.56 752.189 241.582 752.566C240.327 754.479 240.817 756.139 241.324 758.31C242.455 763.146 245.598 767.705 247.577 772.266C248.742 774.949 249.036 777.731 249.473 780.586C249.684 781.967 250.206 783.074 250.67 784.368C251.035 785.387 250.907 786.184 250.593 787.209C230.649 757.852 212.149 725.516 201.848 691.414C188.076 645.817 194.056 603.626 216.706 561.865C242.357 514.57 289.694 480.653 336.598 456.513C429.324 408.791 542.632 392.389 645.694 406.706L715.206 418.92C765.201 427.97 814.906 436.897 865.625 440.941C888.964 442.802 912.263 442.718 935.63 441.363C951.791 440.426 967.319 439.363 982.911 434.79C979.434 425.068 973.043 416.512 966.951 408.298L947.847 382.402L906.173 324.128L719.993 46.4805L759.305 43.4205Z"/>
	<path fill="#FA5C1B" transform="scale(0.16 0.16)" d="M743.106 965.922L746.454 984.111L750.781 982.789C760.565 979.707 764.118 966.095 772.266 960.028C790.244 946.642 810.734 953.378 830.972 956.433C838.763 956.315 895.068 960.593 898.572 958.022C908.842 957.165 924.447 953.846 933.574 959.392L931.911 961.719C933.852 967.996 944.637 974.925 950.265 977.939L952.25 978.903L970.692 965.005C977.369 967.463 982.856 969.48 986.871 975.778C992.952 976.501 1003.2 981.63 1006.98 986.431C1008.02 987.756 1008.63 989.508 1009.23 991.067C1010.93 983.732 1013.52 976.163 1014.23 968.68L1097.16 1016.41C1096.98 1018.45 1097.04 1020.73 1096.18 1022.6C1102.9 1022.95 1109.28 1029.09 1114.39 1033.12C1116.37 1034.69 1119.13 1036.46 1120.7 1038.4C1121.4 1039.26 1121.42 1039.43 1121.81 1040.3L1123.6 1039.06C1123.07 1037.24 1122.29 1035.59 1121.48 1033.88C1124.55 1033.54 1127.53 1034.16 1130.55 1034.62C1138.56 1037.73 1147.02 1043.52 1154.56 1047.79C1152.57 1052.32 1151.19 1056.65 1150.02 1061.46C1168.83 1057.66 1186.15 1051.88 1203.66 1044.12C1215.24 1038.99 1226.75 1033.05 1238.71 1028.85L1239.71 1028.5C1252.99 1020.64 1267.54 1014.83 1281.66 1008.66L1328.36 987.818C1337.33 995.636 1347.95 1000.96 1357.53 1007.98C1374.01 1020.06 1389.83 1034.14 1404.38 1048.49L1456.5 1104.77C1464.36 1113.7 1472.4 1125.46 1481.54 1132.94C1446.59 1202.78 1402.95 1266.53 1348.77 1322.88C1329.76 1342.64 1310.23 1361.87 1288.95 1379.28L1258.94 1403.24L1214.63 1399.61L1203.18 1397.43L1189.74 1395.28L1186.15 1394.16C1161.43 1390.86 1135.83 1383.91 1111.79 1377.3C1026.76 1353.9 944.761 1321.25 866.151 1281.36C848.523 1272.41 830.58 1263.63 813.824 1253.11C794.783 1241.15 776.46 1226.62 760.15 1211.15L755.429 1207.29C752.971 1205.81 750.711 1203.39 748.538 1201.49C741.027 1196.09 733.672 1187.47 727.065 1180.84C682.865 1136.47 648.492 1085.17 619.775 1029.73C617.175 1024.91 615.235 1019.57 613.47 1014.39L613.433 1013.34C619.59 1010.96 626.773 1010.37 633.247 1009.23C642.92 1007.51 652.489 1005.42 661.894 1002.55C669.036 1000.38 676.079 997.718 682.812 994.489C689.647 991.211 695.799 987.565 703.248 985.769L704.013 980.486L719.035 974.884L727.916 971.416L743.106 965.922Z"/>
	<path fill="#F665ED" transform="scale(0.16 0.16)" d="M1207.43 1371.77L1220.49 1373.67L1244.71 1376.85L1288.95 1379.28L1258.94 1403.24L1214.63 1399.61L1203.18 1397.43L1189.74 1395.28C1197.24 1391.71 1193.94 1386.47 1197.72 1381.07C1200.18 1377.57 1204.65 1375.55 1207.43 1371.77Z"/>
	<path fill="#FBAEF5" transform="scale(0.16 0.16)" d="M1207.43 1371.77L1220.49 1373.67L1244.71 1376.85L1240.48 1378.28C1239.24 1378.71 1238.37 1379.79 1237.43 1380.66C1236.6 1381.43 1235.76 1381.95 1234.77 1382.48L1235.81 1383.98L1234.84 1384.96C1233.51 1386.32 1232.63 1387.86 1231.7 1389.5L1230.51 1388.28L1230.86 1384.4L1229.74 1384.73C1225.73 1385.87 1222.15 1385.26 1218.7 1388.01L1214.17 1388.49C1214.21 1390.42 1214.95 1391.85 1215.73 1393.57C1218.81 1394.09 1221.57 1393.98 1224.22 1392.19C1225.8 1392.81 1226.97 1392.81 1227.73 1394.4C1224 1397.17 1218.78 1397.51 1214.63 1399.61L1203.18 1397.43L1189.74 1395.28C1197.24 1391.71 1193.94 1386.47 1197.72 1381.07C1200.18 1377.57 1204.65 1375.55 1207.43 1371.77Z"/>
	<path fill="#FDCAF8" transform="scale(0.16 0.16)" d="M1207.43 1371.77L1220.49 1373.67C1220.05 1374.48 1219.47 1376.05 1218.86 1376.68C1213.49 1382.27 1203.56 1378.69 1206.95 1390.26L1207.42 1391.8C1206.42 1394.62 1205.55 1395.65 1203.18 1397.43L1189.74 1395.28C1197.24 1391.71 1193.94 1386.47 1197.72 1381.07C1200.18 1377.57 1204.65 1375.55 1207.43 1371.77Z"/>
	<path fill="#082287" transform="scale(0.16 0.16)" d="M1130.55 1034.62C1138.56 1037.73 1147.02 1043.52 1154.56 1047.79C1152.57 1052.32 1151.19 1056.65 1150.02 1061.46C1168.83 1057.66 1186.15 1051.88 1203.66 1044.12C1215.24 1038.99 1226.75 1033.05 1238.71 1028.85L1239.71 1028.5C1234.84 1033.35 1227.46 1036.27 1221.33 1039.27C1211.83 1043.92 1202.21 1048.84 1192.19 1052.25L1178.14 1056.34C1176.94 1056.69 1174.67 1057.05 1173.65 1057.74C1171.87 1058.94 1170.7 1069.61 1169.78 1072.42C1164.68 1088.09 1151.23 1099.8 1134.38 1099.95C1126.25 1100.02 1118.35 1096.44 1112.74 1090.61C1106.61 1084.25 1102.79 1076.18 1103.22 1067.19C1103.6 1059.2 1107.74 1050.71 1113.81 1045.52C1116.2 1043.47 1119.04 1041.8 1121.81 1040.3L1123.6 1039.06C1123.07 1037.24 1122.29 1035.59 1121.48 1033.88C1124.55 1033.54 1127.53 1034.16 1130.55 1034.62Z"/>
	<path fill="#082287" transform="scale(0.16 0.16)" d="M743.106 965.922L746.454 984.111L750.781 982.789C760.565 979.707 764.118 966.095 772.266 960.028C790.244 946.642 810.734 953.378 830.972 956.433C824.908 973.903 818.646 993.151 800.754 1001.94C791.893 1006.3 781.376 1007.33 771.983 1004.01C766.3 1002.01 760.96 998.979 756.41 995.028C753.481 992.486 750.749 989.773 748.154 986.894C747.905 986.618 746.068 984.43 745.947 984.395C745.291 984.201 740.995 985.383 740.045 985.565C735.338 986.463 730.476 987.143 725.688 987.416C718.1 987.848 710.71 987.039 703.248 985.769L704.013 980.486L719.035 974.884L727.916 971.416L743.106 965.922Z"/>
	<path fill="#082287" transform="scale(0.16 0.16)" d="M898.572 958.022C908.842 957.165 924.447 953.846 933.574 959.392L931.911 961.719C933.852 967.996 944.637 974.925 950.265 977.939L952.25 978.903L970.692 965.005C977.369 967.463 982.856 969.48 986.871 975.778C992.952 976.501 1003.2 981.63 1006.98 986.431C1008.02 987.756 1008.63 989.508 1009.23 991.067C1010.93 983.732 1013.52 976.163 1014.23 968.68L1097.16 1016.41C1096.98 1018.45 1097.04 1020.73 1096.18 1022.6C1092.68 1025.25 1088.54 1027.03 1084.44 1028.52C1062.98 1036.26 1038.54 1037.88 1015.88 1038.38C1007.8 1038.56 998.499 1039.45 991.016 1035.92C983.934 1032.58 981.37 1023.73 975.391 1019.12C966.302 1012.11 954.509 1008.09 944.653 1002.19C939.778 999.266 936.746 994.612 932.253 991.326C928.274 988.416 922.771 987.261 918.359 985.083C907.055 979.502 902.415 969.31 898.572 958.022Z"/>
	<path fill="white" transform="scale(0.16 0.16)" d="M986.871 975.778C992.952 976.501 1003.2 981.63 1006.98 986.431C1008.02 987.756 1008.63 989.508 1009.23 991.067L1009.53 991.65C1012.96 998.123 1019.52 1002.18 1024.25 1007.59C1026.91 1010.62 1028.32 1014.29 1029.73 1018.01C1025.53 1017.49 1021.26 1017.06 1017.35 1015.34C1011.62 1012.82 1007.04 1007.93 1002.47 1003.79C999.675 1003.56 996.749 1003.91 993.955 1004.06L988.672 1004.8L987.612 1003.91L986.871 975.778Z"/>
	<path fill="#FFDECE" transform="scale(0.16 0.16)" d="M993.955 1004.06C993.312 998.914 993.122 994.591 993.917 989.453C996.184 988.044 998.476 987.934 1001.17 988.304C1002.17 988.441 1002.94 988.95 1003.78 989.453C1005.45 992.986 1002.07 999.325 1002.47 1003.79C999.675 1003.56 996.749 1003.91 993.955 1004.06Z"/>
	<path fill="white" transform="scale(0.16 0.16)" d="M768.991 1191.14C770.98 1189.84 773.437 1187.89 775.816 1187.49C777.596 1187.18 778.123 1188.19 779.508 1189.2C789.002 1198.37 799.021 1208.01 809.386 1216.17C852.884 1250.42 904.048 1275.39 954.895 1296.62C1034.17 1329.73 1114.45 1353.45 1198.64 1370.26L1207.43 1371.77C1204.65 1375.55 1200.18 1377.57 1197.72 1381.07C1193.94 1386.47 1197.24 1391.71 1189.74 1395.28L1186.15 1394.16C1161.43 1390.86 1135.83 1383.91 1111.79 1377.3C1026.76 1353.9 944.761 1321.25 866.151 1281.36C848.523 1272.41 830.58 1263.63 813.824 1253.11C794.783 1241.15 776.46 1226.62 760.15 1211.15L755.429 1207.29C752.971 1205.81 750.711 1203.39 748.538 1201.49L760.424 1196.36L762.985 1194.88L768.991 1191.14Z"/>
	<path fill="#FEE5F0" transform="scale(0.16 0.16)" d="M768.991 1191.14C770.98 1189.84 773.437 1187.89 775.816 1187.49C777.596 1187.18 778.123 1188.19 779.508 1189.2C776.775 1191.79 776.301 1192.33 772.656 1193.04C771.279 1192.52 770.205 1191.97 768.991 1191.14Z"/>
	<path fill="#FEE5F0" transform="scale(0.16 0.16)" d="M1198.64 1370.26L1207.43 1371.77C1204.65 1375.55 1200.18 1377.57 1197.72 1381.07C1193.94 1386.47 1197.24 1391.71 1189.74 1395.28L1186.15 1394.16L1187.87 1393.56L1188.29 1392.19C1187.44 1388.85 1185.65 1386.14 1183.9 1383.21L1192.13 1386.33C1193.58 1386.1 1194.34 1383.38 1195.7 1381.89L1195.27 1380.86L1186.71 1378.49L1190.57 1375.9C1193.49 1374.23 1196.01 1372.35 1198.64 1370.26Z"/>
	<path fill="#FEE5F0" transform="scale(0.16 0.16)" d="M760.424 1196.36L762.985 1194.88L763.61 1195.42C765.822 1197.27 767.799 1198.74 770.687 1199.29C772.037 1199.54 775.082 1199.55 776.172 1200.09C777.081 1200.53 777.914 1203.13 778.046 1204.07C778.346 1206.21 777.948 1208.6 777.734 1210.74L775.891 1212.11C771.526 1211.08 764.163 1208.72 760.15 1211.15L755.429 1207.29C752.971 1205.81 750.711 1203.39 748.538 1201.49L760.424 1196.36Z"/>
	<path fill="#FFB1BA" transform="scale(0.16 0.16)" d="M748.538 1201.49L760.424 1196.36C761.662 1198.2 763.462 1200.18 763.54 1202.46C761.033 1204.69 759.848 1205.6 756.407 1206.02L755.429 1207.29C752.971 1205.81 750.711 1203.39 748.538 1201.49Z"/>
	<defs>
		<linearGradient id="gradient_3" gradientUnits="userSpaceOnUse" x1="444.07272" y1="924.56122" x2="1135.484" y2="503.15305">
			<stop offset="0" stop-color="#FED5BE"/>
			<stop offset="1" stop-color="#FFFCFA"/>
		</linearGradient>
	</defs>
	<path fill="url(#gradient_3)" transform="scale(0.16 0.16)" d="M263.077 755.351C239.283 716.665 215.643 679.999 221.394 632.251C227.279 583.385 262.863 545.507 300.007 516.539C327.466 495.125 359.355 479.175 391.611 466.398C471.891 434.597 559.323 420.612 645.291 431.302C664.841 431.277 684.186 434.742 703.33 438.553L701.626 440.625L702.104 444.533L754.552 454.863C772.556 458.192 791.02 461.044 808.327 467.209C851.434 482.563 883.098 516.381 912.79 549.742C933.29 572.775 952.807 596.914 969.95 622.568L992.354 663.28L996.211 663.169L1041.9 648.644C1050.47 645.522 1059.54 642.2 1067.22 637.207L1068.18 636.995C1080.14 634.264 1091.67 629.74 1103.74 627.035C1140.87 618.717 1180.49 623.41 1213.1 643.891L1226.36 653.159C1233.36 661.732 1240.89 669.906 1243.41 681.012C1249.08 693.004 1247.3 703.251 1242.98 715.254C1228.21 756.331 1190.7 781.166 1152.83 798.919L1115.45 815.821L1075.26 837.748L1075.24 837.816C1072.71 842.123 1070.49 841.623 1066.76 844.343C1063.62 846.634 1062.25 849.436 1061.33 853.104C1057.96 855.016 1055.57 853.251 1052.52 854.297C1052.22 854.4 1050.4 857.332 1050.13 857.832L1085.77 868.057L1130.33 879.989C1126.8 883.723 1127.6 887.23 1125.76 891.905L1159.75 899.679C1163.61 896.356 1167.14 893.323 1171.76 891.085L1167.46 904.104C1139.49 912.859 1112.9 924.95 1085.69 935.715C1065.45 943.725 1044.33 950.437 1024.79 960.078C1021.44 961.734 1016.91 963.975 1014.84 967.18C1014.43 967.825 1014.41 968.031 1014.23 968.68C1013.52 976.163 1010.93 983.732 1009.23 991.067C1008.63 989.508 1008.02 987.756 1006.98 986.431C1003.2 981.63 992.952 976.501 986.871 975.778C982.856 969.48 977.369 967.463 970.692 965.005L952.25 978.903L950.265 977.939C944.637 974.925 933.852 967.996 931.911 961.719L933.574 959.392C924.447 953.846 908.842 957.165 898.572 958.022C895.068 960.593 838.763 956.315 830.972 956.433C810.734 953.378 790.244 946.642 772.266 960.028C764.118 966.095 760.565 979.707 750.781 982.789L746.454 984.111L743.106 965.922L727.916 971.416L719.035 974.884L704.013 980.486L703.248 985.769C695.799 987.565 689.647 991.211 682.812 994.489C676.079 997.718 669.036 1000.38 661.894 1002.55C652.489 1005.42 642.92 1007.51 633.247 1009.23C626.773 1010.37 619.59 1010.96 613.433 1013.34C611.41 1010.06 610.079 1008.13 606.466 1006.58L606.435 1006.5L611.25 1003.67L606.025 1002.81L572.177 1003.9C543.612 1004.61 514.427 999.305 486.033 996.26L484.084 993.073L483.962 992.695L481.369 992.184C477.506 990.348 470.279 990.322 465.949 989.572L434.151 984.019C419.068 981.504 403.165 979.873 390.22 971.106L471.886 945.515C478.408 944.005 485.699 941.063 491.658 938.027C492.794 937.718 493.512 937.029 494.446 936.334L498.384 935.817C500.047 932.77 501.976 929.163 501.836 925.589L499.124 924.88C496.741 924.025 493.348 924.301 490.8 924.192L490.144 923.536C475.452 910.086 435.841 912.581 417.08 913.144L384.661 918.716C376.232 920.588 367.866 923.607 359.375 925.009C356.967 925.406 355.924 925.438 353.666 924.473C352.789 923.29 351.721 922.087 351.067 920.771C347.368 908.408 340.353 897.015 335.232 885.164C335.405 883.84 335.722 882.784 336.204 881.541C339.993 880.854 344.441 880.374 347.827 878.474C349.496 877.538 352.288 874.849 353.906 874.381C355.781 873.839 357.239 875.434 359.672 874.442L360.368 871.35L355.501 865.981C352.634 863.214 350.497 860.688 348.357 857.311L343.052 852.981L280.845 778.93L263.077 755.351Z"/>
	<path fill="#993AE7" transform="scale(0.16 0.16)" d="M1167.06 676.542C1169.08 675.859 1169.51 675.418 1171.51 676.481C1173.47 677.519 1174.99 679.729 1175.55 681.843C1175.99 683.518 1175.81 684.92 1175.55 686.602L1174.25 688.255C1172.54 684.371 1169.82 679.758 1167.06 676.542Z"/>
	<path fill="#570FCE" transform="scale(0.16 0.16)" d="M662.684 893.826C661.421 894.225 660.531 894.456 659.183 894.178C657.586 893.848 655.684 892.706 655.003 891.141C653.522 887.736 655.048 883.122 656.65 880.065C659.114 885.085 657.782 890.706 662.684 893.826Z"/>
	<path fill="#570FCE" transform="scale(0.16 0.16)" d="M961.034 757.771C963.268 759.978 965.156 762.335 965.102 765.649C965.041 769.387 962.865 771.437 960.28 773.827C959.277 770.749 958.395 765.555 959.571 762.41C960.157 760.841 960.614 759.401 961.034 757.771Z"/>
	<path fill="#993AE7" transform="scale(0.16 0.16)" d="M1132.72 694.483L1134.75 695.09L1140.25 691.617L1146.66 700.109C1145.2 699.989 1140.75 703.397 1138.28 703.8C1136.25 703.155 1135.26 702.832 1134.15 700.919C1132.95 698.878 1132.24 696.835 1132.72 694.483Z"/>
	<path fill="#FFDECE" transform="scale(0.16 0.16)" d="M745.205 945.113C747.199 942.191 747.156 940.778 747.818 937.5C748.798 932.646 752.039 929.823 755.859 927.048L758.289 929.158C758.788 931.316 756.74 936.119 755.498 938.142C754.172 940.304 751.394 940.691 749.055 941.243C747.447 944.252 745.885 946.815 745.583 950.27L744.19 962.399L744.012 962.496C742.377 957.863 744.427 949.871 745.205 945.113Z"/>
	<path fill="#FFDECE" transform="scale(0.16 0.16)" d="M1202.27 672.813C1206.21 669.624 1209.69 669.811 1214.53 669.443C1213.21 672.175 1212.08 674.376 1213.07 677.454C1213.52 678.855 1214.05 679.934 1214.86 681.161C1213.21 681.748 1211.81 682.336 1210.27 683.153C1208.62 684.019 1207.32 684.232 1205.47 683.792C1204.56 683.576 1203.95 683.232 1203.14 682.836L1204.37 680.078C1204.21 677.15 1203.74 675.357 1202.27 672.813Z"/>
	<path fill="#621FD0" transform="scale(0.16 0.16)" d="M960.28 773.827C957.771 774.448 955.847 775.349 953.516 774.116C952.11 772.111 951.417 770.461 951.123 768C950.766 765.022 950.794 761.643 952.93 759.282C954.723 757.301 956.741 756.464 959.375 756.275L961.034 757.771C960.614 759.401 960.157 760.841 959.571 762.41C958.395 765.555 959.277 770.749 960.28 773.827Z"/>
	<path fill="#570FCE" transform="scale(0.16 0.16)" d="M1132.72 694.483C1133.56 690.276 1135.13 688.396 1138.69 685.993C1140.28 684.924 1141.42 684.259 1143.36 684.088C1146.38 685.792 1148 687.072 1149.09 690.582C1149.76 692.72 1149.63 695.639 1148.51 697.607C1147.96 698.561 1147.41 699.327 1146.66 700.109L1140.25 691.617L1134.75 695.09L1132.72 694.483Z"/>
	<path fill="#570FCE" transform="scale(0.16 0.16)" d="M1214.53 669.443C1217.49 669.003 1220.68 668.127 1223.32 669.922C1225.09 671.125 1226.47 672.798 1226.55 675C1226.61 676.904 1225.59 678.944 1224.07 680.078C1222.06 681.583 1218.4 682.25 1216 681.536L1214.86 681.161C1214.05 679.934 1213.52 678.855 1213.07 677.454C1212.08 674.376 1213.21 672.175 1214.53 669.443Z"/>
	<path fill="#621FD0" transform="scale(0.16 0.16)" d="M1174.25 688.255L1171.73 691.215C1169.86 692.689 1165.92 693.291 1163.61 692.642C1162.42 692.306 1160.93 689.911 1160.44 688.821C1159.76 687.274 1159.78 685.676 1160.33 684.119C1161.53 680.704 1163.88 678.159 1167.06 676.542C1169.82 679.758 1172.54 684.371 1174.25 688.255Z"/>
	<path fill="#621FD0" transform="scale(0.16 0.16)" d="M656.65 880.065C658.433 878.636 660.88 876.293 663.281 876.257C665.506 876.223 666.402 876.91 667.736 878.564C669.859 881.197 670.22 884.642 670.471 887.891C667.961 890.314 665.864 892.287 662.684 893.826C657.782 890.706 659.114 885.085 656.65 880.065Z"/>
	<path fill="#570FCE" transform="scale(0.16 0.16)" d="M907.836 776.953L909.124 776.942C911.216 777.866 912.225 779.09 913.364 781.016C915.078 783.915 914.719 786.314 913.956 789.453C912.143 791.695 910.749 792.884 908.203 794.255L906.711 794.333C904.679 794.293 903.484 792.807 902.134 791.513C901.04 788.799 900.829 785.977 901.702 783.126C902.757 779.683 904.739 778.482 907.836 776.953Z"/>
	<path fill="#570FCE" transform="scale(0.16 0.16)" d="M776.293 830.859L777.851 830.831C780.016 832.462 780.809 833.524 782.048 835.938C782.18 838.276 782.38 840.588 781.047 842.641C779.335 845.28 776.751 846.494 773.828 847.291L771.484 847.424C769.781 847.157 769.157 845.893 768.565 844.43C767.706 842.304 767.7 838.943 768.656 836.881C770.241 833.463 772.925 832.139 776.293 830.859Z"/>
	<path fill="#570FCE" transform="scale(0.16 0.16)" d="M1006.15 736.328C1007.96 735.716 1009.67 736 1011.52 736.165C1013.84 738.975 1014.58 742.578 1015.62 746.008L1008.98 752.336C1008.02 752.712 1007.26 752.964 1006.21 752.926C1003.58 752.829 1003.65 752.385 1001.95 750.489C1001.13 747.511 1000.88 744.858 1001.56 741.797C1002.17 739.083 1003.95 737.784 1006.15 736.328Z"/>
	<path fill="#570FCE" transform="scale(0.16 0.16)" d="M746.492 842.578C747.253 842.39 748.451 842.045 749.219 842.091C751.661 842.237 752.6 843.58 754.148 845.198C754.865 847.447 755.54 849.535 754.762 851.868C753.709 855.026 751.675 856.663 748.828 858.118L744.922 858.86C743.877 858.286 742.955 857.773 742.241 856.78C740.639 854.554 740.394 852.253 740.872 849.605C741.485 846.2 743.677 844.263 746.492 842.578Z"/>
	<path fill="#FED298" transform="scale(0.16 0.16)" d="M737.292 931.534C741.945 927.541 749.432 921.1 755.149 918.888C758.533 917.578 767.818 919.087 771.728 919.297C767.317 921.264 761.133 923.283 758.862 927.896L758.289 929.158L755.859 927.048C752.039 929.823 748.798 932.646 747.818 937.5C747.156 940.778 747.199 942.191 745.205 945.113L745.711 938.672L743.817 937.575C744.47 937.438 745.123 936.945 745.703 936.613C747.454 931.782 750.218 927.715 753.001 923.433C748.002 925.618 744.039 929.866 739.172 932.374L737.801 933.062L737.292 931.534Z"/>
	<path fill="#570FCE" transform="scale(0.16 0.16)" d="M980.904 748.047C983.391 747.312 984.779 747.191 987.109 748.422C988.885 751.426 990.544 753.846 989.529 757.462C988.467 761.248 986.494 762.35 983.203 764.042L981.238 764.522C979.314 763.831 978.028 762.973 976.759 761.378C974.902 759.042 974.997 756.506 975.391 753.717C976.924 750.986 978.232 749.674 980.904 748.047Z"/>
	<path fill="#570FCE" transform="scale(0.16 0.16)" d="M1086.01 705.078L1088.67 704.619C1091.06 706.277 1092.63 707.855 1094.33 710.202C1094.69 712.445 1094.4 714.036 1093.57 716.17C1092.37 719.271 1090.24 720.216 1087.33 721.484L1084.77 721.81C1082.45 720.883 1081.28 719.401 1079.69 717.578C1079.03 715.334 1078.81 713.791 1079.52 711.505C1080.58 708.091 1083 706.656 1086.01 705.078Z"/>
	<path fill="#621FD0" transform="scale(0.16 0.16)" d="M718.096 870.838C715.86 870.429 714.461 868.383 712.971 866.797C712.142 864.729 712.315 861.931 713.196 859.88C714.778 856.197 718.712 854.463 722.266 853.304C724.253 853.971 726.084 857.145 726.953 859.14C728.08 861.727 727.569 863.877 726.649 866.424C724.748 868.925 722.585 870.414 719.375 870.739L718.096 870.838Z"/>
	<path fill="#570FCE" transform="scale(0.16 0.16)" d="M718.096 870.838L717.48 866.797L716.797 865.279C716.229 862.771 716.801 861.635 718.312 859.766C719.748 860.169 720.949 860.544 722.242 861.297C723.177 863.379 725.036 864.856 726.649 866.424C724.748 868.925 722.585 870.414 719.375 870.739L718.096 870.838Z"/>
	<path fill="#570FCE" transform="scale(0.16 0.16)" d="M799.584 820.703L800.888 820.211C803.084 819.818 804.133 820.688 805.859 821.794C808.176 825.634 808.349 827.919 807.422 832.305C805.768 834.65 804.45 835.692 801.953 837.083L797.656 837.861C796.749 837.249 796.635 837.235 795.789 836.328C793.827 834.225 793.308 831.283 793.532 828.516C793.861 824.457 796.687 823.142 799.584 820.703Z"/>
	<path fill="#570FCE" transform="scale(0.16 0.16)" d="M880.685 789.453L883.513 789.453C884.914 790.504 885.93 791.321 886.752 792.901C887.937 795.176 888.309 797.14 887.436 799.598C886.172 803.16 884.19 804.787 880.859 806.356L878.516 806.954C876.065 806.299 875.764 805.903 873.982 804.05C872.9 800.771 872.609 797.244 874.267 794.066C875.793 791.14 877.617 790.343 880.685 789.453Z"/>
	<path fill="#570FCE" transform="scale(0.16 0.16)" d="M932.527 766.016L935.334 766.016C937.216 767.448 938.694 768.781 939.805 770.917C940.86 772.947 940.776 775.099 939.956 777.198C938.646 780.552 936.435 782.005 933.203 783.263C931.918 783.318 930.939 783.096 929.688 782.836C927.833 781.413 926.399 780.096 925.559 777.85C924.819 775.876 924.967 773.769 925.838 771.863C927.288 768.692 929.31 767.152 932.527 766.016Z"/>
	<path fill="#570FCE" transform="scale(0.16 0.16)" d="M1194.97 671.606C1198.54 671.269 1199.13 671.16 1202.27 672.813C1203.74 675.357 1204.21 677.15 1204.37 680.078L1203.14 682.836C1201.14 684.182 1199.1 685.881 1196.75 686.51C1194.03 686.913 1192.1 686.509 1189.45 685.846C1187.62 683.973 1187.42 682.148 1186.94 679.688C1188.39 675.867 1191.53 673.536 1194.97 671.606Z"/>
	<path fill="#621FD0" transform="scale(0.16 0.16)" d="M1194.97 671.606C1198.54 671.269 1199.13 671.16 1202.27 672.813C1203.74 675.357 1204.21 677.15 1204.37 680.078L1203.14 682.836C1201.14 684.182 1199.1 685.881 1196.75 686.51C1197.03 684.636 1197.27 683.588 1198.35 682.008C1199.09 680.93 1199.56 680.213 1199.86 678.906C1197.83 676.826 1196.53 675.025 1195.31 672.377L1194.97 671.606Z"/>
	<path fill="#621FD0" transform="scale(0.16 0.16)" d="M691.655 864.453L693.76 864.25C695.441 865.353 697.09 867.063 698.047 868.848C699.112 870.836 699.228 873.463 698.61 875.602C697.621 879.026 695.253 880.777 692.277 882.422L690.976 882.559C688.703 882.519 687.388 881.416 685.742 880.078C684.462 877.029 683.712 873.128 685.131 869.992C686.507 866.952 688.667 865.637 691.655 864.453Z"/>
	<path fill="#993AE7" transform="scale(0.16 0.16)" d="M1113.08 694.922L1113.95 694.916C1116.28 695.254 1118.42 697.333 1119.7 699.21C1121.18 701.378 1120.76 703.828 1120.33 706.25C1118.67 708.875 1115.41 710.641 1112.89 712.399C1109.46 712.252 1109.19 711.833 1106.57 709.843C1105.43 707.581 1104.73 706.138 1104.83 703.516C1106.98 699.023 1108.3 696.694 1113.08 694.922Z"/>
	<path fill="#570FCE" transform="scale(0.16 0.16)" d="M853.178 798.828L854.213 798.831C856.379 800.291 857.729 802.248 859.287 804.297C859.432 807.099 859.847 810.384 858.364 812.903C856.608 815.887 854.467 817.089 851.172 817.79L850.527 817.681C847.757 816.837 845.989 814.145 844.766 811.719C844.75 809.704 844.713 807.618 845.446 805.708C846.782 802.227 850.004 800.382 853.178 798.828Z"/>
	<path fill="#570FCE" transform="scale(0.16 0.16)" d="M1035.56 723.828L1037.36 723.682C1039.16 724.802 1039.83 725.953 1040.93 727.739C1042.89 730.935 1042.77 732.74 1041.9 736.328C1039.66 738.934 1037.94 740.738 1034.77 742.148L1031.64 742.176C1029.38 740.873 1028.64 739.31 1027.44 737.109C1027.25 734.908 1026.97 732.643 1027.99 730.598C1029.66 727.233 1032.04 725.042 1035.56 723.828Z"/>
	<path fill="#570FCE" transform="scale(0.16 0.16)" d="M827.415 808.984L830.078 808.544C830.811 809.162 831.462 809.69 831.933 810.547C833.516 813.42 834.862 817.76 833.685 820.907C832.319 824.559 830.147 826.147 826.718 827.734L824.215 827.947C821.907 826.9 820.952 825.774 819.471 823.828C819.422 821.635 819.29 819.27 819.922 817.149C821.192 812.885 823.59 810.931 827.415 808.984Z"/>
	<path fill="#FFD49B" transform="scale(0.16 0.16)" d="M737.292 931.534L737.801 933.062C733.607 936.11 729.513 940.7 724.599 942.45C721.012 943.728 716.51 943.662 713.188 945.549C709.405 947.699 706.472 951.284 702.708 953.487C698.2 956.125 693.216 956.587 688.281 957.921L675.342 961.687C676.056 960.249 683.657 957.281 685.297 956.711C689.678 955.189 694.766 954.498 698.828 952.259C704.554 949.102 708.496 943.712 714.376 940.784L715.528 940.234L737.292 931.534Z"/>
	<path fill="#570FCE" transform="scale(0.16 0.16)" d="M1060.88 713.672C1062.99 713.181 1063.97 713.364 1066.02 714.04C1069.31 716.953 1069.9 718.726 1070.21 723.047C1068.85 726.535 1066.34 728.549 1063.67 731.042C1060.73 731.376 1059.09 731.09 1056.32 730.078C1055 728.036 1053.37 726.005 1053.75 723.438C1054.36 719.297 1057.55 715.874 1060.88 713.672Z"/>
	<path fill="#FED298" transform="scale(0.16 0.16)" d="M1008.4 848.964C1000.94 846.22 991.689 845.427 983.801 844.642C988.068 844.061 992.168 843.572 996.224 842.005C1003.07 839.359 1009.16 834.866 1015.94 832.229C1018.53 831.221 1021.41 831.187 1023.99 830.226C1027.26 829.011 1030.29 826.936 1033.53 825.555L1046.36 820.488C1050.56 818.632 1054.03 815.654 1058.33 814.157C1062.12 812.839 1065.13 810.743 1068.75 809.201C1074.18 806.889 1077.88 806.889 1082.4 802.454L1083.2 801.649L1086.82 803.058C1085.44 804.7 1083.68 807.19 1081.8 808.25C1078.74 809.982 1075.19 810.912 1072.06 812.698C1067.31 815.406 1062.6 818.725 1057.81 821.212C1054.9 822.726 1051.85 823.343 1049.2 825.399L1048.31 826.013C1044.15 828.85 1035.81 831.316 1032.97 835.226C1032.08 836.46 1031.29 839.809 1030.98 841.35C1030.46 843.866 1030.76 844.004 1032.03 846.14L1030.74 847.336C1028.81 848.713 1026.85 850.022 1025.15 851.687L1008.4 848.964Z"/>
	<path fill="#FFB96F" transform="scale(0.16 0.16)" d="M1008.4 848.964C1008.9 846.462 1009.33 845.805 1011.33 844.318C1018.02 843.359 1024.85 843.882 1030.74 847.336C1028.81 848.713 1026.85 850.022 1025.15 851.687L1008.4 848.964Z"/>
	<path fill="#FED298" transform="scale(0.16 0.16)" d="M782.429 924.441L782.01 921.875C797.686 902.454 824.795 891.594 849.23 889.003C857.612 888.114 866.185 887.257 874.609 887.729L875.062 889.062C873.068 891.863 871.403 892.639 868.258 893.896C866.848 894.459 865.626 895.105 864.292 895.818C855.628 900.449 840.709 906.006 831.101 906.659C822.052 907.273 810.696 913.673 802.624 917.733C798.695 919.71 793.893 921.801 791.023 925.239L790.203 926.278L782.429 924.441Z"/>
	<path fill="#FFD49B" transform="scale(0.16 0.16)" d="M615.094 806.519C620.732 806.273 626.408 804.808 631.735 802.998C645.627 798.279 659.007 791.451 672.626 785.935L779.551 742.064L781.937 743.964C778.925 746.103 775.861 748.424 772.562 750.094C767.009 752.905 761.078 755.077 755.355 757.509C753.408 758.336 750.085 759.53 748.647 761.154C748.071 761.805 747.514 764.053 747.16 764.957C742.681 767.548 738.094 770.579 733.231 772.348C724.799 775.416 716.054 776.56 707.591 780.038L638.827 809.6L654.808 813.096L655.078 813.864C647.144 816.465 640.765 813.86 633.203 811.746C628.605 810.46 624.005 809.454 619.532 807.754C618.082 807.203 616.602 806.873 615.094 806.519Z"/>
	<path fill="#FFD49B" transform="scale(0.16 0.16)" d="M1086.82 803.058L1108.98 790.711C1116.71 790.662 1126.76 782.848 1134.3 780.078C1139.85 778.043 1145.96 777.022 1151.63 775.143C1155.91 773.72 1160.15 771.002 1164.56 770.071C1165.5 769.873 1166.29 770.09 1167.2 770.294C1168.74 771.573 1168.84 771.486 1169.15 773.438C1168.06 775.074 1168.36 776.035 1168.34 777.938C1150.81 789.367 1130 797.205 1111.24 806.471C1100.28 811.886 1088.79 819.646 1077.39 823.673L1075.39 822.053C1070.5 821.981 1066.13 823.009 1061.38 823.999C1058.91 823.914 1057.67 823.604 1055.47 824.617C1053.44 825.551 1051.35 825.44 1049.2 825.399C1051.85 823.343 1054.9 822.726 1057.81 821.212C1062.6 818.725 1067.31 815.406 1072.06 812.698C1075.19 810.912 1078.74 809.982 1081.8 808.25C1083.68 807.19 1085.44 804.7 1086.82 803.058Z"/>
	<path fill="#FFD49B" transform="scale(0.16 0.16)" d="M606.025 1002.81C614.908 999.643 624.033 997.218 633.253 995.271C641.243 993.585 650.555 992.895 657.966 989.452L676.096 980.078C680.057 978.084 684.328 976.701 688.329 974.748C694.565 971.705 700.784 967.926 706.636 964.185C712.068 960.711 717.624 957.292 722.65 953.241C727.448 949.374 731.373 944.247 736.417 940.695C738.477 939.245 741.451 938.432 743.817 937.575L745.711 938.672L745.205 945.113C744.427 949.871 742.377 957.863 744.012 962.496L743.596 965.554L743.106 965.922L727.916 971.416L719.035 974.884L704.013 980.486L703.248 985.769C695.799 987.565 689.647 991.211 682.812 994.489C676.079 997.718 669.036 1000.38 661.894 1002.55C652.489 1005.42 642.92 1007.51 633.247 1009.23C626.773 1010.37 619.59 1010.96 613.433 1013.34C611.41 1010.06 610.079 1008.13 606.466 1006.58L606.435 1006.5L611.25 1003.67L606.025 1002.81Z"/>
	<path fill="#FED298" transform="scale(0.16 0.16)" d="M719.035 974.884C717.607 972.759 716.092 971.047 716.221 968.359C717.105 967.457 718.059 966.45 719.141 965.788C720.933 964.693 723.095 964.226 725.145 964.608C727.146 966.763 727.404 968.573 727.916 971.416L719.035 974.884Z"/>
	<path fill="#570FCE" transform="scale(0.16 0.16)" d="M704.013 980.486L703.248 985.769C695.799 987.565 689.647 991.211 682.812 994.489C676.079 997.718 669.036 1000.38 661.894 1002.55C652.489 1005.42 642.92 1007.51 633.247 1009.23C626.773 1010.37 619.59 1010.96 613.433 1013.34C611.41 1010.06 610.079 1008.13 606.466 1006.58L606.435 1006.5L611.25 1003.67C614.271 1003.88 619.027 1002.47 622.136 1001.96C650.153 997.296 676.943 988.789 704.013 980.486Z"/>
	<path fill="#FED298" transform="scale(0.16 0.16)" d="M992.354 663.28L996.211 663.169C990.287 666.712 983.867 667.937 977.62 670.606L961.641 677.937C959.666 678.797 956.805 680.783 954.725 680.773C947.959 685.113 941.524 690.155 934.375 693.816L933.247 694.405C927.126 697.488 920.294 697.993 914.062 701.172C860.875 728.301 801.495 740.216 747.16 764.957C747.514 764.053 748.071 761.805 748.647 761.154C750.085 759.53 753.408 758.336 755.355 757.509C761.078 755.077 767.009 752.905 772.562 750.094C775.861 748.424 778.925 746.103 781.937 743.964L779.551 742.064L922.158 687.218C926.422 684.842 931.16 683.034 935.759 681.425C953.735 673.127 973.02 667.273 992.354 663.28Z"/>
	<path fill="#FFB96F" transform="scale(0.16 0.16)" d="M779.551 742.064L922.158 687.218C920.431 689.329 919.064 690.064 916.623 691.242L912.109 693.862L910.941 693.352C905.11 694.543 899.599 697.5 894.031 699.606L842.574 719.336C843.746 719.922 843.99 719.906 844.773 721.03L843.451 720.894C840.854 720.726 838.01 722.192 835.628 723.165C834.454 726 836.901 726.221 833.203 727.79C830.166 729.079 825.797 730.796 822.607 729.823L821.505 729.535L820.703 729.308L813.672 730.965C811.084 731.447 809.034 733.507 806.641 734.509C798.496 737.918 790.067 740.128 781.937 743.964L779.551 742.064Z"/>
	<path fill="#570FCE" transform="scale(0.16 0.16)" d="M1168.34 777.938C1179.93 772.106 1191.32 764.523 1201.37 756.292C1208.08 750.797 1212.78 744.534 1218.18 737.891C1223.34 731.561 1228.2 725.735 1232.86 719.018C1233.9 717.512 1236.68 714.566 1237.17 712.943C1238.35 708.984 1237.56 704.023 1238.44 699.863C1239.11 696.67 1240.86 693.973 1241.91 690.925C1242.98 687.839 1243.1 684.249 1243.41 681.012C1249.08 693.004 1247.3 703.251 1242.98 715.254C1228.21 756.331 1190.7 781.166 1152.83 798.919L1115.45 815.821L1075.26 837.748L1075.24 837.816C1072.71 842.123 1070.49 841.623 1066.76 844.343C1063.62 846.634 1062.25 849.436 1061.33 853.104C1057.96 855.016 1055.57 853.251 1052.52 854.297C1052.22 854.4 1050.4 857.332 1050.13 857.832L1042.84 855.597L1029.7 852.76L1025.15 851.687C1026.85 850.022 1028.81 848.713 1030.74 847.336L1032.03 846.14C1030.76 844.004 1030.46 843.866 1030.98 841.35C1031.29 839.809 1032.08 836.46 1032.97 835.226C1035.81 831.316 1044.15 828.85 1048.31 826.013L1049.2 825.399C1051.35 825.44 1053.44 825.551 1055.47 824.617C1057.67 823.604 1058.91 823.914 1061.38 823.999C1066.13 823.009 1070.5 821.981 1075.39 822.053L1077.39 823.673C1088.79 819.646 1100.28 811.886 1111.24 806.471C1130 797.205 1150.81 789.367 1168.34 777.938Z"/>
	<path fill="#FF6932" transform="scale(0.16 0.16)" d="M1042.84 855.597C1046.7 853.057 1050.28 850.08 1054.24 847.7C1060.85 843.734 1068.12 840.719 1075.24 837.816C1072.71 842.123 1070.49 841.623 1066.76 844.343C1063.62 846.634 1062.25 849.436 1061.33 853.104C1057.96 855.016 1055.57 853.251 1052.52 854.297C1052.22 854.4 1050.4 857.332 1050.13 857.832L1042.84 855.597Z"/>
	<path fill="white" transform="scale(0.16 0.16)" d="M1061.38 823.999C1066.13 823.009 1070.5 821.981 1075.39 822.053L1077.39 823.673L1034.7 844.306C1033.84 844.977 1033.05 845.716 1032.03 846.14C1030.76 844.004 1030.46 843.866 1030.98 841.35C1031.29 839.809 1032.08 836.46 1032.97 835.226C1035.81 831.316 1044.15 828.85 1048.31 826.013L1049.2 825.399C1051.35 825.44 1053.44 825.551 1055.47 824.617C1057.67 823.604 1058.91 823.914 1061.38 823.999Z"/>
	<path fill="#FFDECE" transform="scale(0.16 0.16)" d="M1049.2 825.399C1051.35 825.44 1053.44 825.551 1055.47 824.617C1057.67 823.604 1058.91 823.914 1061.38 823.999C1052.26 827.516 1045.46 830.025 1038.79 837.604C1037.53 839.03 1035.82 840.716 1035.1 842.496C1034.9 843.009 1034.79 843.801 1034.7 844.306C1033.84 844.977 1033.05 845.716 1032.03 846.14C1030.76 844.004 1030.46 843.866 1030.98 841.35C1031.29 839.809 1032.08 836.46 1032.97 835.226C1035.81 831.316 1044.15 828.85 1048.31 826.013L1049.2 825.399Z"/>
	<path fill="#993AE7" transform="scale(0.16 0.16)" d="M515.661 919.764L516.457 920.762C539.118 917.31 569.538 903.404 590.255 918.258C596.521 922.75 598.712 928.6 601.421 935.446L518.323 976.856L496.69 987.692C492.786 989.642 488.425 992.408 484.084 993.073L483.962 992.695L481.369 992.184C477.506 990.348 470.279 990.322 465.949 989.572L434.151 984.019C419.068 981.504 403.165 979.873 390.22 971.106L471.886 945.515C478.408 944.005 485.699 941.063 491.658 938.027C492.794 937.718 493.512 937.029 494.446 936.334L498.384 935.817C499.303 935.809 500.303 936.166 501.142 935.791C501.515 935.624 505.931 927.278 507.602 925.812C508.844 924.723 509.232 924.646 509.782 923.047L507.422 922.385C508.892 922.094 510.126 921.925 511.453 921.217C512.84 920.477 514.141 920.175 515.661 919.764Z"/>
	<path fill="#570FCE" transform="scale(0.16 0.16)" d="M1029.7 852.76L1042.84 855.597L1050.13 857.832L1085.77 868.057L1130.33 879.989C1126.8 883.723 1127.6 887.23 1125.76 891.905L1159.75 899.679C1163.61 896.356 1167.14 893.323 1171.76 891.085L1167.46 904.104C1139.49 912.859 1112.9 924.95 1085.69 935.715C1065.45 943.725 1044.33 950.437 1024.79 960.078C1021.44 961.734 1016.91 963.975 1014.84 967.18C1014.43 967.825 1014.41 968.031 1014.23 968.68C1013.52 976.163 1010.93 983.732 1009.23 991.067C1008.63 989.508 1008.02 987.756 1006.98 986.431C1003.2 981.63 992.952 976.501 986.871 975.778C982.856 969.48 977.369 967.463 970.692 965.005L952.25 978.903L950.265 977.939C944.637 974.925 933.852 967.996 931.911 961.719L933.574 959.392C924.447 953.846 908.842 957.165 898.572 958.022C895.068 960.593 838.763 956.315 830.972 956.433C810.734 953.378 790.244 946.642 772.266 960.028C764.118 966.095 760.565 979.707 750.781 982.789L746.454 984.111L743.106 965.922L743.596 965.554L754.822 964.112C756.208 957.141 756.874 949.132 760.38 942.885C765.071 934.528 773.105 926.886 782.429 924.441L790.203 926.278C797.78 929.022 806.515 932.53 814.438 933.878C838.489 937.971 862.703 919.737 881.608 907.097L917.361 882.759C932.474 872.485 952.042 855.757 970.962 855.973C979.377 856.069 987.978 858.527 996.122 860.471L1021.79 866.676C1022.05 865.332 1022.3 863.675 1023.05 862.5C1024.86 859.694 1023.04 863.047 1024.24 860.813C1025 859.393 1025.61 858.24 1026.65 856.981C1027.79 855.609 1028.73 854.25 1029.7 852.76Z"/>
	<path fill="#FFDECE" transform="scale(0.16 0.16)" d="M1085.77 868.057L1130.33 879.989C1126.8 883.723 1127.6 887.23 1125.76 891.905L1078.76 880.887L1081.64 879.305C1082.67 876.032 1083.85 874.7 1086.55 872.592C1087.33 871.985 1087.98 871.413 1088.67 870.711L1085.77 868.057Z"/>
	<path fill="white" transform="scale(0.16 0.16)" d="M1029.7 852.76L1042.84 855.597L1050.13 857.832L1085.77 868.057L1088.67 870.711C1087.98 871.413 1087.33 871.985 1086.55 872.592C1083.85 874.7 1082.67 876.032 1081.64 879.305L1078.76 880.887L1021.79 866.676C1022.05 865.332 1022.3 863.675 1023.05 862.5C1024.86 859.694 1023.04 863.047 1024.24 860.813C1025 859.393 1025.61 858.24 1026.65 856.981C1027.79 855.609 1028.73 854.25 1029.7 852.76Z"/>
	<path fill="white" transform="scale(0.16 0.16)" d="M933.574 959.392L934.58 958.868C941.453 955.237 947.448 950.267 953.956 946.056C961.237 941.345 968.059 938.096 976.339 935.497C981.043 937.714 986.363 940.094 989.864 944.058C984.653 951.998 978.353 959.315 970.692 965.005L952.25 978.903L950.265 977.939C944.637 974.925 933.852 967.996 931.911 961.719L933.574 959.392Z"/>
	<path fill="#B247E4" transform="scale(0.16 0.16)" d="M372.432 847.031L316.034 680.08C319.931 674.016 325.422 669.668 331.858 666.511C338.6 663.204 358.201 653.355 364.8 655.65C371.131 658.305 375.295 663.987 378.915 669.599L377.456 672.656C378.521 675.337 379.986 677.124 381.974 679.185C391.78 689.35 402.794 698.704 413.181 708.295L461.584 753.397L510.387 798.593L546.029 830.864C564.578 846.13 585.213 863.694 607.422 873.3C612.767 875.612 619.827 876.951 624.395 880.599C633.939 889.08 642.215 902.229 643.238 915.234C639.379 923.215 627.929 925.795 620.148 928.633L601.421 935.446C598.712 928.6 596.521 922.75 590.255 918.258C569.538 903.404 539.118 917.31 516.457 920.762L515.661 919.764C514.141 920.175 512.84 920.477 511.453 921.217C510.126 921.925 508.892 922.094 507.422 922.385L509.782 923.047C509.232 924.646 508.844 924.723 507.602 925.812C505.931 927.278 501.515 935.624 501.142 935.791C500.303 936.166 499.303 935.809 498.384 935.817C500.047 932.77 501.976 929.163 501.836 925.589L499.124 924.88C496.741 924.025 493.348 924.301 490.8 924.192L490.144 923.536C475.452 910.086 435.841 912.581 417.08 913.144L384.661 918.716C376.232 920.588 367.866 923.607 359.375 925.009C356.967 925.406 355.924 925.438 353.666 924.473C352.789 923.29 351.721 922.087 351.067 920.771C347.368 908.408 340.353 897.015 335.232 885.164C335.405 883.84 335.722 882.784 336.204 881.541C339.993 880.854 344.441 880.374 347.827 878.474C349.496 877.538 352.288 874.849 353.906 874.381C355.781 873.839 357.239 875.434 359.672 874.442L360.368 871.35L355.501 865.981C352.634 863.214 350.497 860.688 348.357 857.311C349.929 858.038 351.557 858.821 353.239 859.256C357.576 860.378 364.386 857.498 368.003 855.176C371.386 853.005 371.596 850.798 372.432 847.031Z"/>
	<path fill="white" transform="scale(0.16 0.16)" d="M447.523 812.846C447.571 808.836 449.035 805.085 450.284 801.323L460.61 812.877L447.523 812.846Z"/>
	<path fill="#FFDECE" transform="scale(0.16 0.16)" d="M467.935 822.12C474.886 829.215 480.929 837.89 487.168 845.641L519.141 886.213L518.451 887.891L516.797 889.11C510.344 889.304 501.262 886.301 495.598 883.123C488.4 879.084 485.032 869.075 481.927 861.848C476.238 848.607 471.58 836.086 467.935 822.12Z"/>
	<path fill="#570FCE" transform="scale(0.16 0.16)" d="M624.395 880.599C633.939 889.08 642.215 902.229 643.238 915.234C639.379 923.215 627.929 925.795 620.148 928.633L601.421 935.446C598.712 928.6 596.521 922.75 590.255 918.258C569.538 903.404 539.118 917.31 516.457 920.762L515.661 919.764C532.152 917.557 548.246 912.314 564.383 908.389C585.069 903.357 605.009 900.219 624.763 891.839C624.311 888.319 624.151 885.2 624.334 881.658L624.395 880.599Z"/>
	<path fill="#FFDECE" transform="scale(0.16 0.16)" d="M447.523 812.846C441.833 813.332 410.834 813.378 407.312 811.341C394.366 778.987 384.159 745.998 377.38 711.797L416.421 758.288L439.671 786.288C443.262 790.662 448.792 795.825 450.284 801.323C449.035 805.085 447.571 808.836 447.523 812.846Z"/>
	<path fill="#570FCE" transform="scale(0.16 0.16)" d="M372.432 847.031L316.034 680.08C319.931 674.016 325.422 669.668 331.858 666.511C338.6 663.204 358.201 653.355 364.8 655.65C362.612 658.263 356.683 658.877 353.347 660.087C344.987 663.119 335.763 666.52 327.938 670.703L326.89 671.255C324.368 672.633 320.556 675.526 319.688 678.359C319.557 678.785 319.544 679.242 319.535 679.688C319.472 682.599 320.881 685.711 321.903 688.375C324.772 695.848 328.451 702.955 331.641 710.289L340.567 732.398L372.084 814.174C378.825 832.604 384.837 851.88 392.764 869.812C399.387 884.792 408.464 899.231 417.08 913.144L384.661 918.716C376.232 920.588 367.866 923.607 359.375 925.009C356.967 925.406 355.924 925.438 353.666 924.473C352.789 923.29 351.721 922.087 351.067 920.771C347.368 908.408 340.353 897.015 335.232 885.164C335.405 883.84 335.722 882.784 336.204 881.541C339.993 880.854 344.441 880.374 347.827 878.474C349.496 877.538 352.288 874.849 353.906 874.381C355.781 873.839 357.239 875.434 359.672 874.442L360.368 871.35L355.501 865.981C352.634 863.214 350.497 860.688 348.357 857.311C349.929 858.038 351.557 858.821 353.239 859.256C357.576 860.378 364.386 857.498 368.003 855.176C371.386 853.005 371.596 850.798 372.432 847.031Z"/>
	<path fill="#F665ED" transform="scale(0.16 0.16)" d="M360.368 871.35L360.716 871.659C361.655 873.246 362.509 874.618 363.096 876.38C354.869 880.65 344.002 881.975 335.232 885.164C335.405 883.84 335.722 882.784 336.204 881.541C339.993 880.854 344.441 880.374 347.827 878.474C349.496 877.538 352.288 874.849 353.906 874.381C355.781 873.839 357.239 875.434 359.672 874.442L360.368 871.35Z"/>
	<path fill="#FE6B98" transform="scale(0.16 0.16)" d="M372.432 847.031L379.69 870.748C374.922 872.825 370.329 874.683 365.296 876.025C363.831 874.574 362.377 872.871 360.716 871.659L360.368 871.35L355.501 865.981C352.634 863.214 350.497 860.688 348.357 857.311C349.929 858.038 351.557 858.821 353.239 859.256C357.576 860.378 364.386 857.498 368.003 855.176C371.386 853.005 371.596 850.798 372.432 847.031Z"/>
	<path fill="#FA5C1B" transform="scale(0.16 0.16)" d="M263.077 755.351C239.283 716.665 215.643 679.999 221.394 632.251C227.279 583.385 262.863 545.507 300.007 516.539C327.466 495.125 359.355 479.175 391.611 466.398C471.891 434.597 559.323 420.612 645.291 431.302C664.841 431.277 684.186 434.742 703.33 438.553L701.626 440.625L702.104 444.533L754.552 454.863C772.556 458.192 791.02 461.044 808.327 467.209C851.434 482.563 883.098 516.381 912.79 549.742C933.29 572.775 952.807 596.914 969.95 622.568L992.354 663.28C973.02 667.273 953.735 673.127 935.759 681.425C931.16 683.034 926.422 684.842 922.158 687.218L779.551 742.064L672.626 785.935C659.007 791.451 645.627 798.279 631.735 802.998C626.408 804.808 620.732 806.273 615.094 806.519C610.67 804.804 605.497 804.154 600.886 802.881C592.922 800.683 585.173 797.443 577.869 793.601C552.53 780.274 531.451 758.672 511.006 738.978L469.17 698.549C453.128 682.658 437.441 666.618 420.159 652.042C413.342 653.923 406.848 655.824 400.381 658.75L379.512 669.332L378.915 669.599C375.295 663.987 371.131 658.305 364.8 655.65C358.201 653.355 338.6 663.204 331.858 666.511C325.422 669.668 319.931 674.016 316.034 680.08L372.432 847.031C371.596 850.798 371.386 853.005 368.003 855.176C364.386 857.498 357.576 860.378 353.239 859.256C351.557 858.821 349.929 858.038 348.357 857.311L343.052 852.981L280.845 778.93L263.077 755.351Z"/>
	<path fill="#FFB96F" transform="scale(0.16 0.16)" d="M645.291 431.302C664.841 431.277 684.186 434.742 703.33 438.553L701.626 440.625L702.104 444.533L665.711 436.765C658.69 435.18 651.958 434.217 645.291 431.302Z"/>
	<defs>
		<linearGradient id="gradient_4" gradientUnits="userSpaceOnUse" x1="986.40222" y1="723.25806" x2="1388.6425" y2="317.8511">
			<stop offset="0" stop-color="#FF901D"/>
			<stop offset="1" stop-color="#FFC61C"/>
		</linearGradient>
	</defs>
	<path fill="url(#gradient_4)" transform="scale(0.16 0.16)" d="M759.305 43.4205C765.916 42.3047 773.174 42.935 779.885 42.88L797.747 42.0536L821.222 42.9358C968.888 44.9278 1118.78 96.5141 1238.86 181.918C1402.18 298.081 1514.45 475.156 1548.03 673.047C1574.25 827.585 1551.91 992.34 1481.54 1132.94C1472.4 1125.46 1464.36 1113.7 1456.5 1104.77L1404.38 1048.49C1389.83 1034.14 1374.01 1020.06 1357.53 1007.98C1347.95 1000.96 1337.33 995.636 1328.36 987.818L1281.66 1008.66C1267.54 1014.83 1252.99 1020.64 1239.71 1028.5L1238.71 1028.85C1226.75 1033.05 1215.24 1038.99 1203.66 1044.12C1186.15 1051.88 1168.83 1057.66 1150.02 1061.46C1151.19 1056.65 1152.57 1052.32 1154.56 1047.79C1147.02 1043.52 1138.56 1037.73 1130.55 1034.62C1127.53 1034.16 1124.55 1033.54 1121.48 1033.88C1122.29 1035.59 1123.07 1037.24 1123.6 1039.06L1121.81 1040.3C1121.42 1039.43 1121.4 1039.26 1120.7 1038.4C1119.13 1036.46 1116.37 1034.69 1114.39 1033.12C1109.28 1029.09 1102.9 1022.95 1096.18 1022.6C1097.04 1020.73 1096.98 1018.45 1097.16 1016.41L1014.23 968.68C1014.41 968.031 1014.43 967.825 1014.84 967.18C1016.91 963.975 1021.44 961.734 1024.79 960.078C1044.33 950.437 1065.45 943.725 1085.69 935.715C1112.9 924.95 1139.49 912.859 1167.46 904.104L1171.76 891.085C1167.14 893.323 1163.61 896.356 1159.75 899.679L1125.76 891.905C1127.6 887.23 1126.8 883.723 1130.33 879.989L1085.77 868.057L1050.13 857.832C1050.4 857.332 1052.22 854.4 1052.52 854.297C1055.57 853.251 1057.96 855.016 1061.33 853.104C1062.25 849.436 1063.62 846.634 1066.76 844.343C1070.49 841.623 1072.71 842.123 1075.24 837.816L1075.26 837.748L1115.45 815.821L1152.83 798.919C1190.7 781.166 1228.21 756.331 1242.98 715.254C1247.3 703.251 1249.08 693.004 1243.41 681.012C1240.89 669.906 1233.36 661.732 1226.36 653.159L1213.1 643.891C1180.49 623.41 1140.87 618.717 1103.74 627.035C1091.67 629.74 1080.14 634.264 1068.18 636.995L1067.22 637.207C1059.54 642.2 1050.47 645.522 1041.9 648.644L996.211 663.169L992.354 663.28L969.95 622.568C952.807 596.914 933.29 572.775 912.79 549.742C883.098 516.381 851.434 482.563 808.327 467.209C791.02 461.044 772.556 458.192 754.552 454.863L702.104 444.533L701.626 440.625L703.33 438.553L703.856 438.661L765.232 448.506C833.473 459.509 905.575 470.558 974.609 460.949C985.684 459.407 999.498 458.166 1008.87 451.432C1013.47 448.129 1017.7 443.284 1018.55 437.5C1020.04 427.402 1014.24 417.061 1009.05 408.848C1002.82 398.977 995.331 389.785 988.232 380.524L965.715 350.331L893.644 249.106L860.029 197.729L799.389 104.945L759.305 43.4205Z"/>
	<path fill="#570FCE" transform="scale(0.16 0.16)" d="M1067.22 637.207C1072.32 632.671 1078.48 630.29 1084.74 627.773C1105.24 619.531 1127.32 615.704 1149.4 617.02C1174.7 618.528 1203.81 626.3 1221.38 645.763C1223.42 648.024 1225.14 650.36 1226.36 653.159L1213.1 643.891C1180.49 623.41 1140.87 618.717 1103.74 627.035C1091.67 629.74 1080.14 634.264 1068.18 636.995L1067.22 637.207Z"/>
	<path fill="#FA5C1B" transform="scale(0.16 0.16)" d="M1075.24 837.816L1075.26 837.748L1115.45 815.821C1117.41 818.825 1119.38 821.703 1121.93 824.256C1129.47 831.809 1138.58 837.887 1146.49 845.108L1172.86 869.656C1177.4 873.937 1181.73 878.68 1186.58 882.604C1189.23 884.745 1202.27 892.556 1201.86 895.163L1201.03 895.74L1130.33 879.989L1085.77 868.057L1050.13 857.832C1050.4 857.332 1052.22 854.4 1052.52 854.297C1055.57 853.251 1057.96 855.016 1061.33 853.104C1062.25 849.436 1063.62 846.634 1066.76 844.343C1070.49 841.623 1072.71 842.123 1075.24 837.816Z"/>
	<path fill="white" transform="scale(0.16 0.16)" d="M1130.33 879.989L1201.03 895.74L1305.57 914.098L1355.13 922.743C1377.96 926.674 1401.28 931.026 1422.51 940.633C1407.5 953.525 1390.54 961.025 1372.56 968.785L1328.36 987.818L1281.66 1008.66C1267.54 1014.83 1252.99 1020.64 1239.71 1028.5L1238.71 1028.85C1226.75 1033.05 1215.24 1038.99 1203.66 1044.12C1186.15 1051.88 1168.83 1057.66 1150.02 1061.46C1151.19 1056.65 1152.57 1052.32 1154.56 1047.79C1147.02 1043.52 1138.56 1037.73 1130.55 1034.62C1127.53 1034.16 1124.55 1033.54 1121.48 1033.88C1122.29 1035.59 1123.07 1037.24 1123.6 1039.06L1121.81 1040.3C1121.42 1039.43 1121.4 1039.26 1120.7 1038.4C1119.13 1036.46 1116.37 1034.69 1114.39 1033.12C1109.28 1029.09 1102.9 1022.95 1096.18 1022.6C1097.04 1020.73 1096.98 1018.45 1097.16 1016.41L1014.23 968.68C1014.41 968.031 1014.43 967.825 1014.84 967.18C1016.91 963.975 1021.44 961.734 1024.79 960.078C1044.33 950.437 1065.45 943.725 1085.69 935.715C1112.9 924.95 1139.49 912.859 1167.46 904.104L1171.76 891.085C1167.14 893.323 1163.61 896.356 1159.75 899.679L1125.76 891.905C1127.6 887.23 1126.8 883.723 1130.33 879.989Z"/>
	<path fill="#570FCE" transform="scale(0.16 0.16)" d="M1097.16 1016.41C1108.35 1021.9 1120.53 1027.16 1130.55 1034.62C1127.53 1034.16 1124.55 1033.54 1121.48 1033.88C1122.29 1035.59 1123.07 1037.24 1123.6 1039.06L1121.81 1040.3C1121.42 1039.43 1121.4 1039.26 1120.7 1038.4C1119.13 1036.46 1116.37 1034.69 1114.39 1033.12C1109.28 1029.09 1102.9 1022.95 1096.18 1022.6C1097.04 1020.73 1096.98 1018.45 1097.16 1016.41Z"/>
</svg>
